<svg width="22" height="22" viewBox="0 0 22 22" fill="none" xmlns="http://www.w3.org/2000/svg">
<path d="M14.7813 10.3616C13.6027 9.42857 12.1295 9.87054 11.3438 10.6071L10.9509 11L10.6071 10.6071C9.87054 9.87054 8.34822 9.42857 7.16964 10.3616C5.99107 11.3438 5.94196 13.0134 6.97321 14.0446L10.558 17.5312C10.8036 17.7768 11.1473 17.7768 11.3929 17.5312L14.9777 14.0446C16.0089 13.0134 15.9107 11.3438 14.7813 10.3616ZM21.9509 7.07143C21.9509 6.58036 21.8527 6.04018 21.6071 5.59821L19.2009 1.08036C18.9554 0.441964 18.3661 0 17.6786 0H4.27232C3.58482 0 2.99554 0.441964 2.75 1.08036L0.34375 5.59821C0.0982143 6.08929 0 6.58036 0 7.12054C0 10.067 0 20.4286 0 20.4286C0 21.3125 0.6875 22 1.57143 22H20.4286C21.2634 22 22 21.3125 22 20.4286C22 20.4286 21.9509 10.067 21.9509 7.07143ZM12.1786 2.35714H17.1875L18.9062 5.5H12.1786V2.35714ZM4.76339 2.35714H9.82143V5.5H3.09375L4.76339 2.35714ZM2.35714 19.6429C2.35714 17.875 2.35714 11.6384 2.35714 7.85714H19.5938C19.5938 11.6384 19.6429 17.875 19.6429 19.6429H2.35714Z" fill="black"/>
</svg>
