<svg width="22" height="18" viewBox="0 0 22 18" fill="none" xmlns="http://www.w3.org/2000/svg">
<path d="M20.1285 0.5H1.83333C0.802083 0.5 0 1.33482 0 2.32143V15.6786C0 16.7031 0.802083 17.5 1.83333 17.5H20.1285C21.1597 17.5 22 16.7031 22 15.6786V2.32143C22 1.33482 21.1597 0.5 20.1285 0.5ZM2.0625 2.32143H19.8993C20.0521 2.32143 20.1285 2.43527 20.1285 2.54911V4.14286H1.83333V2.54911C1.83333 2.43527 1.90972 2.32143 2.0625 2.32143ZM19.8993 15.6786H2.0625C1.90972 15.6786 1.83333 15.6027 1.83333 15.4509V9H20.1285V15.4509C20.1285 15.6027 20.0521 15.6786 19.8993 15.6786ZM7.33333 11.8839C7.33333 11.6562 7.10417 11.4286 6.875 11.4286H4.125C3.85764 11.4286 3.66667 11.6562 3.66667 11.8839V13.4018C3.66667 13.6674 3.85764 13.8571 4.125 13.8571H6.875C7.10417 13.8571 7.33333 13.6674 7.33333 13.4018V11.8839ZM14.6667 11.8839C14.6667 11.6562 14.4375 11.4286 14.2083 11.4286H9.01389C8.74653 11.4286 8.55556 11.6562 8.55556 11.8839V13.4018C8.55556 13.6674 8.74653 13.8571 9.01389 13.8571H14.2083C14.4375 13.8571 14.6667 13.6674 14.6667 13.4018V11.8839Z" fill="#2E313C"/>
</svg>
