<svg width="24" height="24" viewBox="0 0 24 24" fill="none" xmlns="http://www.w3.org/2000/svg">
<rect width="12.3871" height="15.4839" rx="2" fill="white"/>
<path d="M7.00684 11.1357C7.34115 11.0934 7.58447 11.0173 7.73682 10.9072C8.00342 10.7126 8.13672 10.3761 8.13672 9.89795C8.13672 9.53402 8.01188 9.24626 7.76221 9.03467C7.6141 8.91195 7.3623 8.78499 7.00684 8.65381V11.1357ZM6.40381 4.50244C6.03564 4.5109 5.7627 4.61035 5.58496 4.80078C5.40723 4.98698 5.31836 5.243 5.31836 5.56885C5.31836 5.92432 5.45166 6.20573 5.71826 6.41309C5.86637 6.52734 6.09489 6.63314 6.40381 6.73047V4.50244ZM7.01953 13.8271H6.40381V12.564C5.57015 12.4709 4.94808 12.2889 4.5376 12.0181C3.81396 11.5314 3.4585 10.702 3.47119 9.52979H5.18506C5.2443 10.063 5.32682 10.4206 5.43262 10.6025C5.59766 10.8861 5.92139 11.0701 6.40381 11.1548V8.44434L5.88965 8.29199C5.08138 8.05501 4.51009 7.72493 4.17578 7.30176C3.8457 6.87858 3.68066 6.36865 3.68066 5.77197C3.68066 5.37842 3.74414 5.02083 3.87109 4.69922C4.00228 4.3776 4.18424 4.10042 4.41699 3.86768C4.71745 3.56722 5.05176 3.35986 5.41992 3.24561C5.64421 3.17367 5.97217 3.12077 6.40381 3.08691V2.24268H7.00684V3.09961C7.69661 3.15462 8.23828 3.32389 8.63184 3.60742C9.34701 4.06022 9.71729 4.79443 9.74268 5.81006H8.07324C8.03939 5.43343 7.97591 5.15837 7.88281 4.98486C7.72201 4.68441 7.43001 4.51937 7.00684 4.48975V6.9082C8.014 7.25521 8.69108 7.56201 9.03809 7.82861C9.60938 8.27295 9.89502 8.89925 9.89502 9.70752C9.89502 10.7739 9.50358 11.5483 8.7207 12.0308C8.24251 12.327 7.67546 12.5005 7.01953 12.5513V13.8271Z" fill="#2E313C"/>
<path d="M9.2902 10.8386L8.12891 11.2257V12.7741L13.5483 18.1935L14.7096 19.3548L11.9999 19.7419L9.2902 20.5161V21.6774L10.4515 22.0645H15.8708H18.9676L20.9031 21.2903L22.8386 19.3548L23.6128 17.8064V16.6451L22.8386 14.7096L19.7418 10.8386L18.1934 10.0645L17.4192 10.4515V11.9999L17.0321 11.2257L15.6773 10.8386L14.8547 11.2257L14.7096 12.387L14.3225 11.9999L13.5483 11.6128L13.1612 11.9999L12.387 12.387L11.9999 13.1612L11.6128 12.7741L9.2902 10.8386Z" fill="#2E313C"/>
<path d="M22.792 13.5711L19.6164 10.0813C18.988 9.45294 17.9644 9.45211 17.3301 10.0864C17.1291 10.2874 16.9923 10.5281 16.9214 10.7848C16.2896 10.3009 15.3783 10.349 14.7964 10.931C14.5962 11.132 14.4594 11.3727 14.3868 11.6286C13.755 11.1463 12.8437 11.1936 12.2627 11.7755C12.0659 11.9723 11.9308 12.2071 11.8573 12.4571L10.3607 10.9605C9.73232 10.3321 8.7087 10.3313 8.07444 10.9656C7.44524 11.5939 7.44524 12.6176 8.07444 13.2468L13.8243 18.9966L10.4139 19.5321C9.49245 19.6638 8.79738 20.4645 8.79738 21.3961C8.79738 22.0945 9.36576 22.6629 10.0642 22.6629H18.0277C19.2684 22.6629 20.4348 22.1798 21.3123 21.3023L22.6408 19.9738C23.5175 19.098 23.9997 17.9325 23.9997 16.6935C23.9997 15.5364 23.5707 14.4275 22.792 13.5711ZM22.0437 19.3767L20.7152 20.7052C19.9973 21.4231 19.0429 21.8183 18.0277 21.8183H10.0642C9.8311 21.8183 9.6419 21.6291 9.6419 21.396C9.6419 20.8825 10.0253 20.4408 10.5397 20.3673L14.7752 19.7018C14.9323 19.6773 15.0615 19.5667 15.1114 19.4155C15.1604 19.2652 15.1207 19.0988 15.0083 18.9864L8.67152 12.6496C8.37171 12.3498 8.37171 11.8616 8.67576 11.5568C8.82608 11.4073 9.02288 11.3321 9.21968 11.3321C9.41648 11.3321 9.61324 11.4073 9.7636 11.5576L13.989 15.783C14.1537 15.9477 14.4215 15.9477 14.5862 15.783C14.6681 15.7002 14.7095 15.5922 14.7095 15.484C14.7095 15.3759 14.6681 15.2678 14.5853 15.1851L12.8599 13.4596C12.56 13.1598 12.56 12.6724 12.8649 12.3676C13.1639 12.0686 13.6529 12.0686 13.9519 12.3676L15.6782 14.0939C15.8429 14.2585 16.1106 14.2585 16.2753 14.0939C16.3572 14.0111 16.3986 13.903 16.3986 13.7949C16.3986 13.6868 16.3573 13.5787 16.2745 13.4959L15.3936 12.615C15.0938 12.3152 15.0938 11.8278 15.3986 11.523C15.6976 11.224 16.1866 11.224 16.4856 11.523L17.3707 12.4081C17.3724 12.4089 17.3715 12.4089 17.3715 12.4089L17.3724 12.4097C17.3732 12.4106 17.3732 12.4106 17.3732 12.4106C17.374 12.4114 17.374 12.4114 17.374 12.4114H17.3749C17.3757 12.4114 17.3757 12.4122 17.3757 12.4122C17.5412 12.5693 17.8031 12.5659 17.9644 12.4038C18.1291 12.2391 18.1291 11.9713 17.9644 11.8067L17.9281 11.7703C17.7828 11.6251 17.7026 11.4317 17.7026 11.2264C17.7026 11.0212 17.7819 10.8286 17.9323 10.6783C18.233 10.3793 18.7194 10.3802 19.0058 10.6639L22.1679 14.1394C22.8038 14.8396 23.1551 15.7467 23.1551 16.6935C23.1551 17.7069 22.7607 18.6596 22.0437 19.3767Z" fill="white"/>
</svg>
