<svg width="8" height="13" viewBox="0 0 8 13" fill="none" xmlns="http://www.w3.org/2000/svg">
<path d="M7.41797 7.21484C7.55469 7.10547 7.63672 6.94141 7.63672 6.75C7.63672 6.58594 7.55469 6.42188 7.41797 6.28516L2.11328 0.980469C1.97656 0.871094 1.8125 0.789062 1.64844 0.789062C1.45703 0.789062 1.29297 0.871094 1.18359 0.980469L0.582031 1.58203C0.445312 1.71875 0.363281 1.88281 0.363281 2.04688C0.363281 2.23828 0.417969 2.40234 0.554688 2.51172L4.79297 6.75L0.554688 10.9883C0.417969 11.125 0.363281 11.2891 0.363281 11.4531C0.363281 11.6445 0.445312 11.8086 0.582031 11.918L1.18359 12.5195C1.29297 12.6562 1.45703 12.7109 1.64844 12.7109C1.8125 12.7109 1.97656 12.6562 2.11328 12.5195L7.41797 7.21484Z" fill="black"/>
</svg>
