<svg width="17" height="18" viewBox="0 0 17 18" fill="none" xmlns="http://www.w3.org/2000/svg">
<path d="M8.25781 0.820312C3.70035 0.820312 0.0078125 4.51285 0.0078125 9.07031C0.0078125 13.6278 3.70035 17.3203 8.25781 17.3203C12.8153 17.3203 16.5078 13.6278 16.5078 9.07031C16.5078 4.51285 12.8153 0.820312 8.25781 0.820312ZM8.25781 15.7235C4.56527 15.7235 1.60459 12.7629 1.60459 9.07031C1.60459 5.41104 4.56527 2.41709 8.25781 2.41709C11.9171 2.41709 14.911 5.41104 14.911 9.07031C14.911 12.7629 11.9171 15.7235 8.25781 15.7235ZM10.287 12.2639C10.4866 12.3969 10.7195 12.3637 10.8526 12.1641L11.4846 11.3324C11.6177 11.1328 11.5844 10.8999 11.3848 10.7669L9.18926 9.13684V4.41305C9.18926 4.21346 8.98967 4.01386 8.79007 4.01386H7.72555C7.49269 4.01386 7.32636 4.21346 7.32636 4.41305V9.90197C7.32636 10.0018 7.35963 10.1348 7.45942 10.2014L10.287 12.2639Z" fill="black"/>
</svg>
