<svg width="22" height="22" viewBox="0 0 22 22" fill="none" xmlns="http://www.w3.org/2000/svg">
<path d="M19.9923 10.1342L21.4567 9.33502C21.8686 9.11302 22.0974 8.62462 21.9601 8.13623C21.4567 6.27144 20.4042 4.58426 19.0313 3.20787C18.6652 2.89707 18.116 2.80827 17.7042 3.03027L16.2398 3.87386C15.8737 3.60747 15.1873 3.20787 14.7296 3.03027V1.38749C14.7296 0.943491 14.3635 0.455096 13.9059 0.366297C12.0297 -0.122099 9.97035 -0.122099 8.09409 0.366297C7.5907 0.499495 7.27037 0.899092 7.27037 1.38749V3.03027C6.81274 3.20787 6.12631 3.60747 5.76021 3.87386L4.29581 3.03027C3.88395 2.80827 3.3348 2.89707 2.9687 3.20787C1.59583 4.58426 0.543298 6.27144 0.0399124 8.13623C-0.0973747 8.62462 0.131437 9.11302 0.543298 9.33502L2.00769 10.1342C1.96193 10.4006 1.96193 10.7558 1.96193 10.9778C1.96193 11.2442 1.96193 11.5994 2.00769 11.8214L0.543298 12.665C0.131437 12.887 -0.0973747 13.3754 0.0399124 13.8638C0.543298 15.7286 1.59583 17.4157 2.9687 18.7921C3.3348 19.1029 3.88395 19.1917 4.29581 18.9697L5.76021 18.1261C6.12631 18.3925 6.81274 18.7921 7.27037 18.9697V20.6125C7.27037 21.0565 7.63647 21.5449 8.09409 21.6337C9.97035 22.1221 12.0297 22.1221 13.9059 21.6337C14.4093 21.5005 14.7296 21.1009 14.7296 20.6125V18.9697C15.1873 18.7921 15.8737 18.3925 16.2398 18.1261L17.7042 18.9697C18.116 19.1917 18.6652 19.1029 19.0313 18.7921C20.4042 17.4157 21.4567 15.7286 21.9601 13.8638C22.0974 13.3754 21.8686 12.887 21.4567 12.665L19.9923 11.8214C20.0381 11.2886 20.0381 10.7114 19.9923 10.1342ZM17.5669 12.9758L19.5804 14.0858C19.3059 14.885 18.5737 16.0394 18.0245 16.6609L16.011 15.551C14.5466 16.7497 14.3635 16.8829 12.533 17.5045V19.7689C12.1212 19.8133 11.4347 19.9021 11.0229 19.9021C10.5653 19.9021 9.87882 19.8133 9.46696 19.7689V17.5045C7.63647 16.8829 7.40765 16.7497 5.98902 15.551L3.97548 16.6609C3.42633 16.0394 2.69413 14.885 2.41956 14.0858L4.4331 12.9758C4.067 11.111 4.067 10.889 4.4331 9.02422L2.41956 7.91423C2.78565 6.98184 3.28904 6.09384 3.97548 5.33905L5.98902 6.44904C7.45342 5.25025 7.63647 5.11705 9.46696 4.49546V2.23108C9.87882 2.18668 10.5653 2.09788 11.0229 2.09788C11.4347 2.09788 12.1212 2.18668 12.533 2.23108V4.49546C14.3635 5.11705 14.5923 5.25025 16.011 6.44904L18.0245 5.33905C18.5737 5.96065 19.3059 7.11504 19.5804 7.91423L17.5669 9.02422C17.933 10.889 17.933 11.111 17.5669 12.9758ZM11.0229 6.71544C8.59748 6.71544 6.62969 8.66902 6.62969 10.9778C6.62969 13.331 8.59748 15.2402 11.0229 15.2402C13.4025 15.2402 15.4161 13.331 15.4161 10.9778C15.4161 8.66902 13.4025 6.71544 11.0229 6.71544ZM11.0229 13.109C9.7873 13.109 8.82629 12.1766 8.82629 10.9778C8.82629 9.82341 9.7873 8.84662 11.0229 8.84662C12.2127 8.84662 13.2195 9.82341 13.2195 10.9778C13.2195 12.1766 12.2127 13.109 11.0229 13.109Z" fill="black"/>
</svg>
