<svg width="20" height="22" viewBox="0 0 20 22" fill="none" xmlns="http://www.w3.org/2000/svg">
<path d="M6.65942 12.375C6.91724 12.375 7.17505 12.1602 7.17505 11.8594V10.1406C7.17505 9.88281 6.91724 9.625 6.65942 9.625H4.94067C4.63989 9.625 4.42505 9.88281 4.42505 10.1406V11.8594C4.42505 12.1602 4.63989 12.375 4.94067 12.375H6.65942ZM11.3 11.8594V10.1406C11.3 9.88281 11.0422 9.625 10.7844 9.625H9.06567C8.76489 9.625 8.55005 9.88281 8.55005 10.1406V11.8594C8.55005 12.1602 8.76489 12.375 9.06567 12.375H10.7844C11.0422 12.375 11.3 12.1602 11.3 11.8594ZM15.425 11.8594V10.1406C15.425 9.88281 15.1672 9.625 14.9094 9.625H13.1907C12.8899 9.625 12.675 9.88281 12.675 10.1406V11.8594C12.675 12.1602 12.8899 12.375 13.1907 12.375H14.9094C15.1672 12.375 15.425 12.1602 15.425 11.8594ZM11.3 15.9844V14.2656C11.3 14.0078 11.0422 13.75 10.7844 13.75H9.06567C8.76489 13.75 8.55005 14.0078 8.55005 14.2656V15.9844C8.55005 16.2852 8.76489 16.5 9.06567 16.5H10.7844C11.0422 16.5 11.3 16.2852 11.3 15.9844ZM7.17505 15.9844V14.2656C7.17505 14.0078 6.91724 13.75 6.65942 13.75H4.94067C4.63989 13.75 4.42505 14.0078 4.42505 14.2656V15.9844C4.42505 16.2852 4.63989 16.5 4.94067 16.5H6.65942C6.91724 16.5 7.17505 16.2852 7.17505 15.9844ZM15.425 15.9844V14.2656C15.425 14.0078 15.1672 13.75 14.9094 13.75H13.1907C12.8899 13.75 12.675 14.0078 12.675 14.2656V15.9844C12.675 16.2852 12.8899 16.5 13.1907 16.5H14.9094C15.1672 16.5 15.425 16.2852 15.425 15.9844ZM19.55 4.8125C19.55 3.69531 18.6047 2.75 17.4875 2.75H15.425V0.515625C15.425 0.257812 15.1672 0 14.9094 0H13.1907C12.8899 0 12.675 0.257812 12.675 0.515625V2.75H7.17505V0.515625C7.17505 0.257812 6.91724 0 6.65942 0H4.94067C4.63989 0 4.42505 0.257812 4.42505 0.515625V2.75H2.36255C1.20239 2.75 0.300049 3.69531 0.300049 4.8125V19.9375C0.300049 21.0977 1.20239 22 2.36255 22H17.4875C18.6047 22 19.55 21.0977 19.55 19.9375V4.8125ZM17.4875 19.6797C17.4875 19.8516 17.3586 19.9375 17.2297 19.9375H2.62036C2.44849 19.9375 2.36255 19.8516 2.36255 19.6797V6.875H17.4875V19.6797Z" fill="#2E313C"/>
</svg>
