<svg width="22" height="17" viewBox="0 0 22 17" fill="none" xmlns="http://www.w3.org/2000/svg">
<path d="M19.9375 0.5H2.0625C0.902344 0.5 0 1.44531 0 2.5625V14.9375C0 16.0977 0.902344 17 2.0625 17H19.9375C21.0547 17 22 16.0977 22 14.9375V2.5625C22 1.44531 21.0547 0.5 19.9375 0.5ZM19.9375 2.5625V4.32422C18.9492 5.14062 17.4023 6.34375 14.1367 8.92188C13.4062 9.48047 11.9883 10.8555 11 10.8125C9.96875 10.8555 8.55078 9.48047 7.82031 8.92188C4.55469 6.34375 3.00781 5.14062 2.0625 4.32422V2.5625H19.9375ZM2.0625 14.9375V6.98828C3.00781 7.76172 4.42578 8.87891 6.53125 10.5547C7.47656 11.2852 9.15234 12.918 11 12.875C12.8047 12.918 14.4375 11.2852 15.4258 10.5547C17.5312 8.87891 18.9492 7.76172 19.9375 6.98828V14.9375H2.0625Z" fill="#2E313C"/>
</svg>
