<svg width="22" height="22" viewBox="0 0 22 22" fill="none" xmlns="http://www.w3.org/2000/svg">
<path d="M17.7692 0H4.23077C3.1087 0 2.03259 0.44574 1.23916 1.23916C0.44574 2.03259 0 3.1087 0 4.23077V17.7692C0 18.8913 0.44574 19.9674 1.23916 20.7608C2.03259 21.5543 3.1087 22 4.23077 22H11C11.2244 22 11.4396 21.9109 11.5983 21.7522C11.757 21.5935 11.8462 21.3783 11.8462 21.1538V14.3846C11.8462 14.1602 11.757 13.945 11.5983 13.7863C11.4396 13.6276 11.2244 13.5385 11 13.5385H10.1538V11.8462H11C11.2244 11.8462 11.4396 11.757 11.5983 11.5983C11.757 11.4396 11.8462 11.2244 11.8462 11V8.03846C11.8462 7.47743 12.069 6.93937 12.4657 6.54266C12.8624 6.14595 13.4005 5.92308 13.9615 5.92308H16.0769V7.61538H15.2308C14.7819 7.61538 14.3515 7.79368 14.0341 8.11105C13.7168 8.42842 13.5385 8.85886 13.5385 9.30769V11C13.5385 11.2244 13.6276 11.4396 13.7863 11.5983C13.945 11.757 14.1602 11.8462 14.3846 11.8462H15.84L15.4169 13.5385H14.3846C14.1602 13.5385 13.945 13.6276 13.7863 13.7863C13.6276 13.945 13.5385 14.1602 13.5385 14.3846V17.7692C13.5385 17.9936 13.6276 18.2089 13.7863 18.3676C13.945 18.5262 14.1602 18.6154 14.3846 18.6154C14.609 18.6154 14.8243 18.5262 14.9829 18.3676C15.1416 18.2089 15.2308 17.9936 15.2308 17.7692V15.2308H16.0769C16.2702 15.2364 16.4596 15.1757 16.6136 15.0587C16.7675 14.9416 16.8767 14.7754 16.9231 14.5877L17.7692 11.2031C17.8009 11.0782 17.8037 10.9477 17.7773 10.8216C17.7509 10.6955 17.696 10.5771 17.6169 10.4754C17.5346 10.3711 17.4289 10.2876 17.3084 10.2318C17.1879 10.1759 17.0559 10.1492 16.9231 10.1538H15.2308V9.30769H16.9231C17.1475 9.30769 17.3627 9.21854 17.5214 9.05986C17.6801 8.90117 17.7692 8.68595 17.7692 8.46154V5.07692C17.7692 4.85251 17.6801 4.63729 17.5214 4.4786C17.3627 4.31992 17.1475 4.23077 16.9231 4.23077H13.9615C12.9524 4.233 11.9852 4.63489 11.2716 5.34849C10.558 6.06208 10.1561 7.02929 10.1538 8.03846V10.1538H9.30769C9.08328 10.1538 8.86806 10.243 8.70937 10.4017C8.55069 10.5604 8.46154 10.7756 8.46154 11V14.3846C8.46154 14.609 8.55069 14.8243 8.70937 14.9829C8.86806 15.1416 9.08328 15.2308 9.30769 15.2308H10.1538V20.3077H4.23077C3.55753 20.3077 2.91186 20.0402 2.43581 19.5642C1.95975 19.0881 1.69231 18.4425 1.69231 17.7692V4.23077C1.69231 3.55753 1.95975 2.91186 2.43581 2.43581C2.91186 1.95975 3.55753 1.69231 4.23077 1.69231H17.7692C18.4425 1.69231 19.0881 1.95975 19.5642 2.43581C20.0402 2.91186 20.3077 3.55753 20.3077 4.23077V17.7692C20.3077 18.4425 20.0402 19.0881 19.5642 19.5642C19.0881 20.0402 18.4425 20.3077 17.7692 20.3077H14.3846C14.1602 20.3077 13.945 20.3968 13.7863 20.5555C13.6276 20.7142 13.5385 20.9294 13.5385 21.1538C13.5385 21.3783 13.6276 21.5935 13.7863 21.7522C13.945 21.9109 14.1602 22 14.3846 22H17.7692C18.8913 22 19.9674 21.5543 20.7608 20.7608C21.5543 19.9674 22 18.8913 22 17.7692V4.23077C22 3.1087 21.5543 2.03259 20.7608 1.23916C19.9674 0.44574 18.8913 0 17.7692 0Z" fill="black"/>
</svg>
