<svg width="20" height="23" viewBox="0 0 20 23" fill="none" xmlns="http://www.w3.org/2000/svg">
<path d="M18.9805 3.58594L16.7891 1.39453C16.4453 1.05078 15.8008 0.75 15.3281 0.75H7.9375C6.77734 0.75 5.875 1.69531 5.875 2.8125V4.875H2.4375C1.27734 4.875 0.375 5.82031 0.375 6.9375V20.6875C0.375 21.8477 1.27734 22.75 2.4375 22.75H12.0625C13.1797 22.75 14.125 21.8477 14.125 20.6875V18.625H17.5625C18.6797 18.625 19.625 17.7227 19.625 16.5625V5.04688C19.625 4.57422 19.3242 3.92969 18.9805 3.58594ZM11.8047 20.6875H2.69531C2.52344 20.6875 2.4375 20.6016 2.4375 20.4297V7.19531C2.4375 7.06641 2.52344 6.9375 2.69531 6.9375H5.875V16.5625C5.875 17.7227 6.77734 18.625 7.9375 18.625H12.0625V20.4297C12.0625 20.6016 11.9336 20.6875 11.8047 20.6875ZM17.3047 16.5625H8.19531C8.02344 16.5625 7.9375 16.4766 7.9375 16.3047V3.07031C7.9375 2.94141 8.02344 2.8125 8.19531 2.8125H12.75V6.59375C12.75 7.19531 13.1797 7.625 13.7812 7.625H17.5625V16.3047C17.5625 16.4766 17.4336 16.5625 17.3047 16.5625ZM17.5625 5.5625H14.8125V2.8125H15.1992C15.2852 2.8125 15.3281 2.85547 15.3711 2.89844L17.4766 5.00391C17.5195 5.04688 17.5625 5.08984 17.5625 5.17578V5.5625Z" fill="#2E313C"/>
</svg>
