<svg width="22" height="21" viewBox="0 0 22 21" fill="none" xmlns="http://www.w3.org/2000/svg">
<path d="M19.9375 5.5H18.7773C19.0781 4.98438 19.25 4.42578 19.25 3.78125C19.25 1.71875 17.5312 0 15.4688 0C13.6641 0 12.5039 0.945312 11.043 2.96484C9.53906 0.945312 8.37891 0 6.61719 0C4.51172 0 2.83594 1.71875 2.83594 3.78125C2.83594 4.42578 2.96484 4.98438 3.26562 5.5H2.0625C0.902344 5.5 0 6.44531 0 7.5625V13.0625C0 13.4492 0.300781 13.75 0.6875 13.75H1.375V18.3906C1.375 19.6367 2.36328 20.625 3.60938 20.625H18.3477C19.5938 20.625 20.625 19.6367 20.625 18.3906V13.75H21.3125C21.6562 13.75 22 13.4492 22 13.0625V7.5625C22 6.44531 21.0547 5.5 19.9375 5.5ZM9.96875 18.5625H3.60938C3.52344 18.5625 3.4375 18.4766 3.4375 18.3906V13.75H8.25V11.6875H2.0625V7.5625H9.96875V18.5625ZM6.57422 5.5C5.62891 5.5 4.85547 4.76953 4.85547 3.78125C4.85547 2.83594 5.62891 2.0625 6.57422 2.0625C7.51953 2.0625 8.20703 2.40625 10.2266 5.37109L10.3125 5.5H6.57422ZM11.8164 5.37109C13.8359 2.40625 14.5234 2.0625 15.4688 2.0625C16.4141 2.0625 17.1875 2.83594 17.1875 3.78125C17.1875 4.76953 16.4141 5.5 15.4688 5.5H11.7305L11.8164 5.37109ZM19.9375 11.6875H13.75V13.75H18.5625V18.3906C18.5625 18.4766 18.4766 18.5625 18.3477 18.5625H12.0312V7.5625H19.9375V11.6875Z" fill="black"/>
</svg>
