<svg width="30" height="30" viewBox="0 0 30 30" fill="none" xmlns="http://www.w3.org/2000/svg">
<path d="M12.9904 17.4857C12.8931 17.421 12.7934 17.351 12.6889 17.2803C12.385 17.1872 12.0623 17.1389 11.7318 17.1346H11.692C10.173 17.1346 8.84131 18.0536 8.84131 19.1025C8.84131 20.2445 9.98265 21.1369 11.4388 21.1369C13.3596 21.1369 14.3329 20.4735 14.3329 19.1684C14.3329 19.0451 14.3184 18.9171 14.2876 18.7884C14.1577 18.282 13.6931 17.966 12.9904 17.4857Z" fill="#2E313C"/>
<path d="M11.9143 13.5052H11.9155C12.2786 13.5052 12.5849 13.362 12.8224 13.0901C13.1946 12.6659 13.3595 11.9699 13.2616 11.2309C13.0894 9.91014 12.1451 8.81049 11.1596 8.78209L11.1203 8.78088C10.7717 8.78088 10.4605 8.92468 10.2243 9.19537C9.85754 9.61408 9.70226 10.2775 9.79833 11.0152C9.97113 12.3348 10.9354 13.475 11.9004 13.5052H11.9143Z" fill="#2E313C"/>
<path d="M15 0C6.72903 0 0 6.72903 0 15C0 23.2704 6.72903 30 15 30C23.2704 30 30 23.2704 30 15C30 6.72903 23.2716 0 15 0ZM13.2708 22.3042C12.704 22.468 12.0908 22.5508 11.4473 22.5508C10.7307 22.5508 10.0419 22.4686 9.39962 22.306C8.15677 21.9925 7.23838 21.3979 6.80939 20.6318C6.62451 20.3007 6.53085 19.9478 6.53085 19.5823C6.53085 19.2059 6.62088 18.824 6.79852 18.4458C7.47946 16.9945 9.27455 16.0181 11.263 16.0181H11.3198C11.1585 15.7335 11.0805 15.4387 11.0805 15.1287C11.0805 14.9746 11.1011 14.8175 11.1421 14.6574C9.05643 14.6103 7.49577 13.0829 7.49577 11.069C7.49577 9.64735 8.63228 8.2619 10.2576 7.70241C10.744 7.53444 11.24 7.44864 11.7276 7.44864H16.1879C16.3395 7.44864 16.4743 7.54713 16.5214 7.69153C16.5685 7.83533 16.5166 7.99364 16.3939 8.08245L15.3964 8.80448C15.3365 8.84677 15.2646 8.86973 15.1903 8.86973H14.8332C15.2942 9.42258 15.5643 10.2111 15.5643 11.0962C15.5643 12.0732 15.0701 12.9971 14.1704 13.701C13.4756 14.2423 13.4484 14.3916 13.4484 14.7003C13.4569 14.8701 13.9408 15.4242 14.4749 15.8018C15.719 16.6815 16.1818 17.5449 16.1818 18.9853C16.1812 20.4904 15.0387 21.7907 13.2708 22.3042ZM23.3435 14.6538C23.3435 14.8471 23.1858 15.0042 22.993 15.0042H20.4584V17.5401C20.4584 17.7334 20.3007 17.8905 20.1092 17.8905H19.3871C19.1926 17.8905 19.0355 17.7334 19.0355 17.5401V15.0042H16.5027C16.3093 15.0042 16.1522 14.8483 16.1522 14.6538V13.933C16.1522 13.7396 16.3093 13.5813 16.5027 13.5813H19.0355V11.0479C19.0355 10.8539 19.1926 10.6975 19.3871 10.6975H20.1092C20.3007 10.6975 20.4584 10.8539 20.4584 11.0479V13.5813H22.9924C23.1852 13.5813 23.3429 13.7384 23.3429 13.9318V14.6538H23.3435Z" fill="#2E313C"/>
</svg>
