<svg width="22" height="20" viewBox="0 0 22 20" fill="none" xmlns="http://www.w3.org/2000/svg">
<path d="M19.7006 1.88377C17.2078 -0.191215 13.3827 0.105211 11.0188 2.51897C8.61199 0.105211 4.78684 -0.191215 2.29405 1.88377C-0.929394 4.55161 -0.456623 8.91332 1.86425 11.2424L9.38561 18.8225C9.8154 19.2459 10.3741 19.5 11.0188 19.5C11.6205 19.5 12.1793 19.2459 12.609 18.8225L20.1734 11.2424C22.4513 8.91332 22.9241 4.55161 19.7006 1.88377ZM18.6691 9.80261L11.1478 17.3827C11.0618 17.4674 10.9758 17.4674 10.8469 17.3827L3.32555 9.80261C1.73532 8.23578 1.43446 5.27151 3.6264 3.4506C5.30259 2.05316 7.88134 2.26489 9.51455 3.87407L11.0188 5.39855L12.5231 3.87407C14.1133 2.26489 16.6921 2.05316 18.3683 3.40825C20.5602 5.27151 20.2593 8.23578 18.6691 9.80261Z" fill="black"/>
</svg>
