<svg width="30" height="30" viewBox="0 0 30 30" fill="none" xmlns="http://www.w3.org/2000/svg">
<path d="M14.9993 18.0029C16.6542 18.0029 18.0034 16.6561 18.0034 15C18.0034 14.3462 17.7895 13.7426 17.4354 13.2496C16.8898 12.4931 16.0028 11.9971 15.0011 11.9971C13.9987 11.9971 13.1123 12.4925 12.5655 13.249C12.2102 13.742 11.9982 14.3456 11.9976 14.9994C11.9957 16.6555 13.3437 18.0029 14.9993 18.0029Z" fill="#2E313C"/>
<path d="M21.5569 11.3264V8.8093V8.43469L21.1805 8.4359L18.6646 8.44376L18.6742 11.3361L21.5569 11.3264Z" fill="#2E313C"/>
<path d="M15 0C6.72903 0 0 6.72903 0 15C0 23.2704 6.72903 30 15 30C23.2704 30 30 23.2704 30 15C30 6.72903 23.2716 0 15 0ZM23.5308 13.2496V20.2342C23.5308 22.0535 22.0517 23.532 20.2336 23.532H9.76637C7.94772 23.532 6.46923 22.0535 6.46923 20.2342V13.2496V9.76698C6.46923 7.94832 7.94772 6.46983 9.76637 6.46983H20.233C22.0517 6.46983 23.5308 7.94832 23.5308 9.76698V13.2496Z" fill="#2E313C"/>
<path d="M19.6663 15C19.6663 17.5721 17.5734 19.6663 15.0001 19.6663C12.4268 19.6663 10.3344 17.5721 10.3344 15C10.3344 14.3813 10.4577 13.7898 10.6776 13.2496H8.13086V20.2342C8.13086 21.1369 8.86376 21.868 9.76584 21.868H20.2325C21.1334 21.868 21.8675 21.1369 21.8675 20.2342V13.2496H19.3195C19.5413 13.7898 19.6663 14.3813 19.6663 15Z" fill="#2E313C"/>
</svg>
