<svg width="14" height="18" viewBox="0 0 14 18" fill="none" xmlns="http://www.w3.org/2000/svg">
<path d="M7 0.75C3.44727 0.75 0.625 3.55098 0.625 6.93146C0.625 9.24951 1.38867 9.95781 5.63867 16.5256C6.26953 17.4915 7.69727 17.4915 8.32812 16.5256C12.5781 9.95781 13.375 9.24951 13.375 6.93146C13.375 3.51878 10.4863 0.75 7 0.75ZM7 15.6885C2.75 9.12073 2.21875 8.70219 2.21875 6.93146C2.21875 4.38805 4.34375 2.29537 7 2.29537C9.62305 2.29537 11.7812 4.38805 11.7812 6.93146C11.7812 8.70219 11.25 9.05634 7 15.6885ZM4.34375 6.93146C4.34375 8.38024 5.50586 9.50707 7 9.50707C8.46094 9.50707 9.65625 8.38024 9.65625 6.93146C9.65625 5.51488 8.46094 4.35585 7 4.35585C5.50586 4.35585 4.34375 5.51488 4.34375 6.93146Z" fill="black"/>
</svg>
