<svg width="20" height="22" viewBox="0 0 20 22" fill="none" xmlns="http://www.w3.org/2000/svg">
<path d="M17.4643 10.3125H5.92857V6.27344C5.92857 3.99609 7.70982 2.10547 9.95759 2.0625C12.2054 2.0625 14.0714 3.91016 14.0714 6.1875V7.21875C14.0714 7.82031 14.4955 8.25 15.0893 8.25C15.6406 8.25 16.1071 7.82031 16.1071 7.21875V6.27344C16.1071 2.83594 13.3929 0.0429688 10 0C6.60714 0 3.89286 2.79297 3.89286 6.1875V10.3125H2.53571C1.39062 10.3125 0.5 11.2578 0.5 12.375V19.9375C0.5 21.0977 1.39062 22 2.53571 22H17.4643C18.567 22 19.5 21.0977 19.5 19.9375V12.375C19.5 11.2578 18.567 10.3125 17.4643 10.3125ZM17.4643 19.9375H2.53571V12.375H17.4643V19.9375ZM10 18.5625C10.6362 18.5625 11.1875 18.0469 11.1875 17.3594V14.9531C11.1875 14.3086 10.6362 13.75 10 13.75C9.32143 13.75 8.8125 14.3086 8.8125 14.9531V17.3594C8.8125 18.0469 9.32143 18.5625 10 18.5625Z" fill="black"/>
</svg>
