<svg width="22" height="22" viewBox="0 0 22 22" fill="none" xmlns="http://www.w3.org/2000/svg">
<path d="M20.4537 0.955401L16.4162 0.0516453C15.4713 -0.163535 14.5264 0.309861 14.1827 1.17058L12.2929 5.56025C11.9492 6.3349 12.164 7.28169 12.8512 7.84116L14.5693 9.26135C13.3667 11.4992 11.4768 13.3498 9.24327 14.5978L7.82585 12.8764C7.26748 12.1878 6.32253 11.9726 5.5494 12.3169L1.1683 14.1674C0.309256 14.5548 -0.163215 15.5016 0.0515445 16.4484L0.953536 20.4937C1.1683 21.3975 1.98438 22 2.88637 22C13.4096 22 22 13.4789 22 2.89202C22 1.98826 21.3557 1.17058 20.4537 0.955401ZM2.97228 19.9343L2.07029 16.061L6.27958 14.2535L8.68489 17.18C12.9371 15.1573 15.1277 12.9624 17.1464 8.70188L14.2257 6.29186L16.0297 2.07434L19.9383 2.97809C19.8954 12.3169 12.2929 19.8912 2.97228 19.9343Z" fill="black"/>
</svg>
