<svg width="14" height="14" viewBox="0 0 14 14" fill="none" xmlns="http://www.w3.org/2000/svg">
<path d="M13.4688 6.40625C13.5391 6.40625 13.5742 6.44141 13.6445 6.51172C13.7148 6.58203 13.75 6.61719 13.75 6.6875V7.8125C13.75 7.88281 13.7148 7.95312 13.6445 8.02344C13.5742 8.09375 13.5391 8.09375 13.4688 8.09375H7.84375V13.7188C7.84375 13.7891 7.80859 13.8594 7.73828 13.9297C7.66797 14 7.63281 14 7.5625 14H6.4375C6.36719 14 6.29688 14 6.22656 13.9297C6.15625 13.8594 6.15625 13.7891 6.15625 13.7188V8.09375H0.53125C0.460938 8.09375 0.390625 8.09375 0.320312 8.02344C0.25 7.95312 0.25 7.88281 0.25 7.8125V6.6875C0.25 6.61719 0.25 6.58203 0.320312 6.51172C0.390625 6.44141 0.460938 6.40625 0.53125 6.40625H6.15625V0.78125C6.15625 0.710938 6.15625 0.675781 6.22656 0.605469C6.29688 0.535156 6.36719 0.5 6.4375 0.5H7.5625C7.63281 0.5 7.66797 0.535156 7.73828 0.605469C7.80859 0.675781 7.84375 0.710938 7.84375 0.78125V6.40625H13.4688Z" fill="#2E313C"/>
</svg>
