<svg width="27" height="24" viewBox="0 0 27 24" fill="none" xmlns="http://www.w3.org/2000/svg">
<path d="M1.17188 3H20.25L20.6719 0.9375C20.7656 0.421875 21.2344 0 21.75 0H26.4375C26.7656 0 27 0.28125 27 0.5625V1.6875C27 2.01562 26.7656 2.25 26.4375 2.25H22.6875L19.4531 18.9375C19.9688 19.5 20.25 20.2031 20.25 21C20.25 22.6875 18.9375 24 17.25 24C15.6094 24 14.25 22.6875 14.25 21C14.25 20.5781 14.4375 19.9219 14.6719 19.5H7.875C8.10938 19.9219 8.25 20.5781 8.25 21C8.25 22.6875 6.9375 24 5.25 24C3.60938 24 2.25 22.6875 2.25 21C2.25 20.1562 2.625 19.4062 3.1875 18.8438L3.14062 18.6562C3 17.9531 3.51562 17.25 4.26562 17.25H17.4844L17.9062 15H3.28125C2.71875 15 2.29688 14.6719 2.15625 14.1562L0.046875 4.40625C-0.09375 3.70312 0.421875 3 1.17188 3ZM17.25 22.125C17.9062 22.125 18.375 21.6562 18.375 21C18.375 20.3906 17.9062 19.875 17.25 19.875C16.6406 19.875 16.125 20.3906 16.125 21C16.125 21.6562 16.6406 22.125 17.25 22.125ZM5.25 22.125C5.90625 22.125 6.375 21.6562 6.375 21C6.375 20.3906 5.90625 19.875 5.25 19.875C4.64062 19.875 4.125 20.3906 4.125 21C4.125 21.6562 4.64062 22.125 5.25 22.125ZM4.17188 12.75H18.375L19.8281 5.25H2.53125L4.17188 12.75Z" fill="white"/>
</svg>
