<svg width="22" height="22" viewBox="0 0 22 22" fill="none" xmlns="http://www.w3.org/2000/svg">
<path d="M11 0C4.92339 0 0 4.96774 0 11C0 17.0766 4.92339 22 11 22C17.0323 22 22 17.0766 22 11C22 4.96774 17.0323 0 11 0ZM11 19.871C6.07661 19.871 2.12903 15.9234 2.12903 11C2.12903 6.12097 6.07661 2.12903 11 2.12903C15.879 2.12903 19.871 6.12097 19.871 11C19.871 15.9234 15.879 19.871 11 19.871ZM15.746 8.56048C15.746 6.34274 13.3952 4.6129 11.2218 4.6129C9.1371 4.6129 7.80645 5.5 6.78629 7.05242C6.60887 7.27419 6.65323 7.58468 6.875 7.7621L8.11693 8.69355C8.33871 8.87097 8.69355 8.82661 8.87097 8.60484C9.53629 7.7621 10.0242 7.27419 11.0444 7.27419C11.8427 7.27419 12.8185 7.7621 12.8185 8.56048C12.8185 9.1371 12.3306 9.40323 11.5323 9.84677C10.6452 10.379 9.44758 11 9.44758 12.5968V12.9516C9.44758 13.2621 9.66935 13.4839 9.97984 13.4839H11.9758C12.2863 13.4839 12.5081 13.2621 12.5081 12.9516V12.6855C12.5081 11.5766 15.746 11.5323 15.746 8.56048ZM12.8629 15.9677C12.8629 14.9476 12.0202 14.1048 11 14.1048C9.93548 14.1048 9.1371 14.9476 9.1371 15.9677C9.1371 17.0323 9.93548 17.8306 11 17.8306C12.0202 17.8306 12.8629 17.0323 12.8629 15.9677Z" fill="black"/>
</svg>
