<svg width="22" height="14" viewBox="0 0 22 14" fill="none" xmlns="http://www.w3.org/2000/svg">
<path d="M0.95237 6.0232H18.7487L14.5022 1.66742C14.1302 1.28608 14.1302 0.667465 14.5022 0.286177C14.8742 -0.0953924 15.4773 -0.0953924 15.8488 0.286177L21.721 6.30927C22.093 6.69061 22.093 7.30928 21.721 7.69051L15.8488 13.7139C15.6629 13.9047 15.4192 14 15.1755 14C14.9319 14 14.6882 13.9047 14.5022 13.7139C14.1302 13.3325 14.1302 12.7139 14.5022 12.3327L18.7487 7.97669H0.95237C0.426466 7.97669 0 7.53933 0 6.99992C0 6.46051 0.426411 6.0232 0.95237 6.0232Z" fill="white"/>
</svg>
