<svg width="27" height="24" viewBox="0 0 27 24" fill="none" xmlns="http://www.w3.org/2000/svg">
<path d="M25.8281 3H6.75L6.32812 0.9375C6.23438 0.421875 5.76562 0 5.25 0H0.5625C0.234375 0 0 0.28125 0 0.5625V1.6875C0 2.01562 0.234375 2.25 0.5625 2.25H4.3125L7.54688 18.9375C7.03125 19.5 6.75 20.2031 6.75 21C6.75 22.6875 8.0625 24 9.75 24C11.3906 24 12.75 22.6875 12.75 21C12.75 20.5781 12.5625 19.9219 12.3281 19.5H19.125C18.8906 19.9219 18.75 20.5781 18.75 21C18.75 22.6875 20.0625 24 21.75 24C23.3906 24 24.75 22.6875 24.75 21C24.75 20.1562 24.375 19.4062 23.8125 18.8438L23.8594 18.6562C24 17.9531 23.4844 17.25 22.7344 17.25H9.51562L9.09375 15H23.7188C24.2812 15 24.7031 14.6719 24.8438 14.1562L26.9531 4.40625C27.0938 3.70312 26.5781 3 25.8281 3ZM9.75 22.125C9.09375 22.125 8.625 21.6562 8.625 21C8.625 20.3906 9.09375 19.875 9.75 19.875C10.3594 19.875 10.875 20.3906 10.875 21C10.875 21.6562 10.3594 22.125 9.75 22.125ZM21.75 22.125C21.0938 22.125 20.625 21.6562 20.625 21C20.625 20.3906 21.0938 19.875 21.75 19.875C22.3594 19.875 22.875 20.3906 22.875 21C22.875 21.6562 22.3594 22.125 21.75 22.125ZM22.8281 12.75H8.625L7.17188 5.25H24.4688L22.8281 12.75Z" fill="#2E313C"/>
</svg>
