<svg width="22" height="20" viewBox="0 0 22 20" fill="none" xmlns="http://www.w3.org/2000/svg">
<path d="M21.3125 1.84375H12.375V0.8125C12.375 0.46875 12.0312 0.125 11.6875 0.125H10.3125C9.92578 0.125 9.625 0.46875 9.625 0.8125V1.84375H0.6875C0.300781 1.84375 0 2.1875 0 2.53125V3.21875C0 3.60547 0.300781 3.90625 0.6875 3.90625H9.625V4.9375C9.625 5.32422 9.92578 5.625 10.3125 5.625H11.6875C12.0312 5.625 12.375 5.32422 12.375 4.9375V3.90625H21.3125C21.6562 3.90625 22 3.60547 22 3.21875V2.53125C22 2.1875 21.6562 1.84375 21.3125 1.84375ZM21.3125 15.5938H6.875V14.5625C6.875 14.2188 6.53125 13.875 6.1875 13.875H4.8125C4.42578 13.875 4.125 14.2188 4.125 14.5625V15.5938H0.6875C0.300781 15.5938 0 15.9375 0 16.2812V16.9688C0 17.3555 0.300781 17.6562 0.6875 17.6562H4.125V18.6875C4.125 19.0742 4.42578 19.375 4.8125 19.375H6.1875C6.53125 19.375 6.875 19.0742 6.875 18.6875V17.6562H21.3125C21.6562 17.6562 22 17.3555 22 16.9688V16.2812C22 15.9375 21.6562 15.5938 21.3125 15.5938ZM21.3125 8.71875H17.875V7.6875C17.875 7.34375 17.5312 7 17.1875 7H15.8125C15.4258 7 15.125 7.34375 15.125 7.6875V8.71875H0.6875C0.300781 8.71875 0 9.0625 0 9.40625V10.0938C0 10.4805 0.300781 10.7812 0.6875 10.7812H15.125V11.8125C15.125 12.1992 15.4258 12.5 15.8125 12.5H17.1875C17.5312 12.5 17.875 12.1992 17.875 11.8125V10.7812H21.3125C21.6562 10.7812 22 10.4805 22 10.0938V9.40625C22 9.0625 21.6562 8.71875 21.3125 8.71875Z" fill="black"/>
</svg>
