<svg width="22" height="22" viewBox="0 0 22 22" fill="none" xmlns="http://www.w3.org/2000/svg">
<path d="M19.2791 5.50941L18.8234 5.96522C18.451 6.33763 17.9558 6.54272 17.4291 6.54272C16.9024 6.54272 16.4073 6.33763 16.0348 5.96522C15.6624 5.59281 15.4573 5.09764 15.4573 4.57097C15.4573 4.0443 15.6624 3.54913 16.0348 3.17668L16.4906 2.72087L13.7697 0L0 13.7697L2.72087 16.4906L3.17668 16.0348C3.54909 15.6624 4.04426 15.4573 4.57097 15.4573C5.09768 15.4573 5.59277 15.6624 5.96522 16.0348C6.33763 16.4072 6.54272 16.9024 6.54272 17.429C6.54272 17.9557 6.33763 18.4509 5.96522 18.8233L5.50941 19.2791L8.23028 22L22 8.23028L19.2791 5.50941ZM7.28793 19.2344C7.64186 18.704 7.832 18.0811 7.832 17.429C7.832 16.558 7.4928 15.7391 6.87685 15.1232C6.26093 14.5072 5.44199 14.168 4.57097 14.168C3.91888 14.168 3.296 14.3581 2.76564 14.7121L1.82325 13.7697L13.7697 1.82325L14.7121 2.76564C14.3581 3.296 14.168 3.91888 14.168 4.57097C14.168 5.44204 14.5072 6.26093 15.1232 6.87685C15.7391 7.4928 16.558 7.832 17.429 7.832C18.0811 7.832 18.704 7.64186 19.2344 7.28793L20.1768 8.23028L8.23028 20.1768L7.28793 19.2344Z" fill="white"/>
<path d="M12.8457 8.23902L11.9341 9.15063L12.8493 10.0659L13.761 9.15428L12.8457 8.23902Z" fill="white"/>
<path d="M11.0156 6.40797L10.104 7.31958L11.0193 8.23484L11.9309 7.32323L11.0156 6.40797Z" fill="white"/>
<path d="M14.6763 10.0696L13.7646 10.9812L14.6799 11.8965L15.5915 10.9848L14.6763 10.0696Z" fill="white"/>
</svg>
