<svg width="20" height="23" viewBox="0 0 20 23" fill="none" xmlns="http://www.w3.org/2000/svg">
<path d="M11.8906 18.625H12.9219C13.1797 18.625 13.4375 18.4102 13.4375 18.1094V8.82812C13.4375 8.57031 13.1797 8.3125 12.9219 8.3125H11.8906C11.5898 8.3125 11.375 8.57031 11.375 8.82812V18.1094C11.375 18.4102 11.5898 18.625 11.8906 18.625ZM18.9375 4.1875H15.3711L13.9102 1.78125C13.5664 1.22266 12.793 0.75 12.1484 0.75H7.80859C7.16406 0.75 6.39062 1.22266 6.04688 1.78125L4.58594 4.1875H1.0625C0.675781 4.1875 0.375 4.53125 0.375 4.875V5.5625C0.375 5.94922 0.675781 6.25 1.0625 6.25H1.75V20.6875C1.75 21.8477 2.65234 22.75 3.8125 22.75H16.1875C17.3047 22.75 18.25 21.8477 18.25 20.6875V6.25H18.9375C19.2812 6.25 19.625 5.94922 19.625 5.5625V4.875C19.625 4.53125 19.2812 4.1875 18.9375 4.1875ZM7.72266 2.94141C7.76562 2.89844 7.89453 2.8125 7.9375 2.8125H12.0195C12.0625 2.8125 12.1914 2.89844 12.2344 2.94141L12.9648 4.1875H6.99219L7.72266 2.94141ZM16.1875 20.6875H3.8125V6.25H16.1875V20.6875ZM7.07812 18.625H8.10938C8.36719 18.625 8.625 18.4102 8.625 18.1094V8.82812C8.625 8.57031 8.36719 8.3125 8.10938 8.3125H7.07812C6.77734 8.3125 6.5625 8.57031 6.5625 8.82812V18.1094C6.5625 18.4102 6.77734 18.625 7.07812 18.625Z" fill="black"/>
</svg>
