<svg width="30" height="24" viewBox="0 0 30 24" fill="none" xmlns="http://www.w3.org/2000/svg">
<path d="M28.9335 16.8667H28.2002V11.55C28.2002 10.6792 27.8335 9.85417 27.1918 9.2125L23.3877 5.40833C22.746 4.76667 21.921 4.4 21.0502 4.4H19.4002V2.56667C19.4002 1.19167 18.2085 0 16.8335 0H2.90016C1.47933 0 0.333496 1.19167 0.333496 2.56667V16.5C0.333496 17.9208 1.47933 19.0667 2.90016 19.0667H3.26683C3.26683 21.4958 5.23766 23.4667 7.66683 23.4667C10.096 23.4667 12.0668 21.4958 12.0668 19.0667H17.9335C17.9335 21.4958 19.9043 23.4667 22.3335 23.4667C24.7627 23.4667 26.7335 21.4958 26.7335 19.0667H28.9335C29.3002 19.0667 29.6668 18.7458 29.6668 18.3333V17.6C29.6668 17.2333 29.3002 16.8667 28.9335 16.8667ZM7.66683 21.2667C6.42933 21.2667 5.46683 20.3042 5.46683 19.0667C5.46683 17.875 6.42933 16.8667 7.66683 16.8667C8.8585 16.8667 9.86683 17.875 9.86683 19.0667C9.86683 20.3042 8.8585 21.2667 7.66683 21.2667ZM17.2002 16.8667H11.4252C10.6918 15.5833 9.271 14.6667 7.66683 14.6667C6.01683 14.6667 4.596 15.5833 3.86266 16.8667H2.90016C2.671 16.8667 2.5335 16.7292 2.5335 16.5V2.56667C2.5335 2.38333 2.671 2.2 2.90016 2.2H16.8335C17.0168 2.2 17.2002 2.38333 17.2002 2.56667V16.8667ZM19.4002 6.6H21.0502C21.3252 6.6 21.6002 6.7375 21.8293 6.92083L25.1752 10.2667H19.4002V6.6ZM22.3335 21.2667C21.096 21.2667 20.1335 20.3042 20.1335 19.0667C20.1335 17.875 21.096 16.8667 22.3335 16.8667C23.5252 16.8667 24.5335 17.875 24.5335 19.0667C24.5335 20.3042 23.5252 21.2667 22.3335 21.2667ZM26.0002 16.6833C25.1752 15.4917 23.846 14.6667 22.3335 14.6667C21.1877 14.6667 20.1793 15.125 19.4002 15.8125V12.4667H26.0002V16.6833Z" fill="black"/>
</svg>
