<svg width="22" height="18" viewBox="0 0 22 18" fill="none" xmlns="http://www.w3.org/2000/svg">
<path d="M21.8518 2.61044C21.5906 2.22846 21.0732 2.13344 20.6964 2.39861L18.1184 4.21352C17.8843 4.37828 17.7499 4.65334 17.7622 4.94211C17.7696 5.1153 17.7732 5.27771 17.7732 5.43854C17.7732 10.7851 13.7635 16.3152 7.05327 16.3152C5.68536 16.3152 4.34147 16.051 3.08548 15.5414L7.06389 14.4124C7.50547 14.2871 7.76329 13.8223 7.63975 13.3743C7.51621 12.9264 7.05858 12.6647 6.61656 12.79L0.606601 14.4957C0.291551 14.5851 0.0576445 14.8538 0.00915834 15.1821C-0.0392171 15.5103 0.106795 15.8369 0.382214 16.0161C2.37745 17.3139 4.68431 18 7.05327 18C11.7089 18 14.6249 15.7683 16.2514 13.8962C18.2738 11.5682 19.4337 8.48555 19.4337 5.43865C19.4337 5.4053 19.4336 5.37194 19.4334 5.33847L21.6431 3.7829C22.0197 3.51761 22.1132 2.99276 21.8518 2.61044Z" fill="black"/>
<path d="M1.83278 2.34773L10.2 6.65109C10.3186 6.71219 10.4473 6.74218 10.5752 6.74218C10.7574 6.74218 10.9385 6.68142 11.0877 6.5627C11.3415 6.36076 11.4571 6.02797 11.384 5.7091C11.3285 5.46718 11.3005 5.21536 11.3005 4.96086C11.3005 3.15449 12.7492 1.68484 14.53 1.68484C15.4201 1.68484 16.2794 2.06189 16.8874 2.71938C17.1146 2.96513 17.4643 3.0497 17.7764 2.93469L20.3588 1.9827C20.7898 1.82378 21.0123 1.3406 20.8556 0.903353C20.6991 0.465997 20.2224 0.24058 19.7918 0.399281L17.6904 1.17392C16.8127 0.422306 15.6886 0 14.53 0C11.9916 0 9.89886 1.97237 9.66229 4.48565L2.58354 0.845061C2.1745 0.634582 1.67492 0.800584 1.46758 1.21548C1.26024 1.63048 1.42374 2.13736 1.83278 2.34773Z" fill="black"/>
<path d="M1.4047 7.39215L3.24319 7.90712C3.31714 7.9279 3.39142 7.93767 3.46459 7.93767C3.82868 7.93767 4.16277 7.69271 4.26439 7.31926C4.38649 6.8709 4.12701 6.40692 3.6851 6.28304L1.84661 5.76807C1.40492 5.6443 0.947403 5.90734 0.825302 6.35582C0.703311 6.80441 0.962679 7.26827 1.4047 7.39215Z" fill="black"/>
<path d="M3.01652 9.89937C2.55834 9.917 2.201 10.3081 2.21838 10.773C2.23532 11.227 2.60339 11.5834 3.04752 11.5834C3.05814 11.5834 3.06877 11.5832 3.0794 11.5829L4.9128 11.5123C5.37098 11.4947 5.72831 11.1036 5.71105 10.6386C5.69367 10.1738 5.30722 9.81165 4.85003 9.82883L3.01652 9.89937Z" fill="black"/>
</svg>
