<svg width="16" height="17" viewBox="0 0 16 17" fill="none" xmlns="http://www.w3.org/2000/svg">
<path d="M9.38574 8.42578L7.06543 7.74902C6.77539 7.65234 6.5498 7.33008 6.5498 7.00781C6.5498 6.58887 6.87207 6.23438 7.22656 6.23438H8.67676C8.90234 6.23438 9.12793 6.29883 9.32129 6.42773C9.51465 6.55664 9.77246 6.52441 9.93359 6.36328L10.3203 6.00879C10.5781 5.7832 10.5459 5.39648 10.2559 5.20312C9.80469 4.88086 9.28906 4.71973 8.77344 4.71973V4.17188C8.77344 3.91406 8.54785 3.65625 8.25781 3.65625H7.74219C7.45215 3.65625 7.22656 3.91406 7.22656 4.17188V4.6875C6.00195 4.71973 5.03516 5.75098 5.03516 7.00781C5.03516 8.00684 5.67969 8.94141 6.61426 9.19922L8.93457 9.9082C9.22461 10.0049 9.41797 10.2949 9.41797 10.6494C9.41797 11.0684 9.12793 11.3906 8.74121 11.3906H7.29102C7.06543 11.3906 6.87207 11.3584 6.67871 11.2295C6.45312 11.1006 6.19531 11.1328 6.03418 11.2939L5.64746 11.6484C5.38965 11.874 5.4541 12.2607 5.71191 12.4541C6.16309 12.7441 6.67871 12.9375 7.22656 12.9375V13.4531C7.22656 13.7432 7.45215 13.9688 7.74219 13.9688H8.25781C8.51562 13.9688 8.77344 13.7432 8.77344 13.4531V12.9375C9.96582 12.9375 10.9648 11.9062 10.9648 10.6494C10.9648 9.65039 10.3203 8.71582 9.38574 8.42578ZM8 0.820312C3.58496 0.820312 0.0078125 4.39746 0.0078125 8.8125C0.0078125 13.2275 3.58496 16.8047 8 16.8047C12.415 16.8047 15.9922 13.2275 15.9922 8.8125C15.9922 4.39746 12.415 0.820312 8 0.820312ZM8 15.2578C4.42285 15.2578 1.55469 12.3896 1.55469 8.8125C1.55469 5.26758 4.42285 2.36719 8 2.36719C11.5449 2.36719 14.4453 5.26758 14.4453 8.8125C14.4453 12.3896 11.5449 15.2578 8 15.2578Z" fill="black"/>
</svg>
