<svg width="20" height="22" viewBox="0 0 20 22" fill="none" xmlns="http://www.w3.org/2000/svg">
<path d="M13.7746 13.0625C12.5446 13.0625 11.9933 13.75 10 13.75C7.96429 13.75 7.41295 13.0625 6.18304 13.0625C3.04464 13.0625 0.5 15.6836 0.5 18.8633V19.9375C0.5 21.0977 1.39062 22 2.53571 22H17.4643C18.567 22 19.5 21.0977 19.5 19.9375V18.8633C19.5 15.6836 16.9129 13.0625 13.7746 13.0625ZM17.4643 19.9375H2.53571V18.8633C2.53571 16.8008 4.14732 15.125 6.18304 15.125C6.8192 15.125 7.79464 15.8125 10 15.8125C12.1629 15.8125 13.1384 15.125 13.7746 15.125C15.8103 15.125 17.4643 16.8008 17.4643 18.8633V19.9375ZM10 12.375C13.3504 12.375 16.1071 9.625 16.1071 6.1875C16.1071 2.79297 13.3504 0 10 0C6.60714 0 3.89286 2.79297 3.89286 6.1875C3.89286 9.625 6.60714 12.375 10 12.375ZM10 2.0625C12.2054 2.0625 14.0714 3.95312 14.0714 6.1875C14.0714 8.46484 12.2054 10.3125 10 10.3125C7.75223 10.3125 5.92857 8.46484 5.92857 6.1875C5.92857 3.95312 7.75223 2.0625 10 2.0625Z" fill="#2E313C"/>
</svg>
