<svg width="96" height="77" viewBox="0 0 96 77" fill="none" xmlns="http://www.w3.org/2000/svg">
<path d="M93.2417 59.0499V45.1924C93.2397 43.4807 92.5582 41.8397 91.3465 40.6294C90.1349 39.4191 88.4921 38.7383 86.7786 38.7364H81.9313V6.45606C81.9293 4.7444 81.2478 3.10339 80.0361 1.89306C78.8245 0.68273 77.1817 0.00192238 75.4682 0H20.5318C18.8183 0.00192238 17.1755 0.68273 15.9639 1.89306C14.7522 3.10339 14.0707 4.7444 14.0687 6.45606V38.7364H9.22142C7.50789 38.7383 5.8651 39.4191 4.65345 40.6294C3.4418 41.8397 2.76025 43.4807 2.75833 45.1924V59.0499L0 61.8053L2.28511 64.0879L5.51666 60.8599C5.66669 60.71 5.78571 60.532 5.8669 60.3362C5.9481 60.1404 5.98988 59.9305 5.98988 59.7185V45.1924C5.99089 44.3366 6.33168 43.5161 6.9375 42.911C7.54331 42.3058 8.36468 41.9654 9.22142 41.9644H14.0687V46.138L11.3104 48.8931L13.5955 51.1758L20.8665 43.9127C21.0347 43.7446 21.2345 43.6113 21.4543 43.5204C21.6741 43.4294 21.9097 43.3826 22.1476 43.3826C22.3855 43.3826 22.6211 43.4294 22.8409 43.5204C23.0608 43.6113 23.2605 43.7446 23.4287 43.9127C23.597 44.0808 23.7304 44.2803 23.8215 44.4998C23.9125 44.7194 23.9594 44.9547 23.9594 45.1924C23.9594 45.4301 23.9125 45.6654 23.8215 45.885C23.7304 46.1046 23.597 46.3041 23.4287 46.4721L16.1577 53.7352C16.0077 53.8851 15.8887 54.063 15.8075 54.2588C15.7263 54.4547 15.6845 54.6645 15.6845 54.8765C15.6845 55.0885 15.7263 55.2983 15.8075 55.4942C15.8887 55.69 16.0077 55.8679 16.1577 56.0178C17.5666 57.4286 18.3578 59.3399 18.3578 61.3326C18.3578 63.3252 17.5666 65.2366 16.1577 66.6473L8.07887 74.7174L10.364 77L18.4428 68.9299C19.6691 67.7095 20.5807 66.2102 21.0996 64.5606H74.9004C75.4193 66.2102 76.3309 67.7095 77.5571 68.9299L85.636 77L87.9211 74.7174L79.8423 66.6473C78.4334 65.2366 77.6422 63.3252 77.6422 61.3326C77.6422 59.3399 78.4334 57.4286 79.8423 56.0178C79.9923 55.8679 80.1113 55.69 80.1925 55.4942C80.2737 55.2983 80.3155 55.0885 80.3155 54.8765C80.3155 54.6645 80.2737 54.4547 80.1925 54.2588C80.1113 54.063 79.9923 53.8851 79.8423 53.7352L72.5713 46.4721C72.403 46.3041 72.2696 46.1046 72.1785 45.885C72.0875 45.6654 72.0406 45.4301 72.0406 45.1924C72.0406 44.9547 72.0875 44.7194 72.1785 44.4998C72.2696 44.2803 72.403 44.0808 72.5713 43.9127C72.7395 43.7446 72.9392 43.6113 73.1591 43.5204C73.3789 43.4294 73.6145 43.3826 73.8524 43.3826C74.0903 43.3826 74.3259 43.4294 74.5457 43.5204C74.7655 43.6113 74.9652 43.7446 75.1335 43.9127L82.4045 51.1758L84.6896 48.8931L81.9313 46.138V41.9644H86.7786C87.6353 41.9654 88.4567 42.3058 89.0625 42.911C89.6683 43.5161 90.0091 44.3366 90.0101 45.1924V59.7185C90.0101 59.9305 90.0519 60.1404 90.1331 60.3362C90.2143 60.532 90.3333 60.71 90.4833 60.8599L93.7149 64.0879L96 61.8053L93.2417 59.0499ZM78.6997 6.45606V17.7542H42.6059C43.1066 16.7011 43.2688 15.5192 43.0702 14.3704C42.8717 13.2216 42.3221 12.1624 41.4968 11.3381C40.6716 10.5138 39.6113 9.9648 38.4613 9.76644C37.3112 9.56808 36.128 9.73008 35.0738 10.2302V3.22803H75.4682C76.3249 3.22904 77.1463 3.56947 77.7521 4.17462C78.3579 4.77977 78.6987 5.60024 78.6997 6.45606ZM26.9949 15.3331C26.9949 14.691 27.2503 14.0752 27.7048 13.6212C28.1593 13.1672 28.7758 12.9121 29.4186 12.9121C30.0614 12.9121 30.6779 13.1672 31.1324 13.6212C31.5869 14.0752 31.8423 14.691 31.8423 15.3331V17.7542H29.4186C28.776 17.7535 28.16 17.4982 27.7056 17.0443C27.2512 16.5904 26.9956 15.975 26.9949 15.3331ZM37.4975 17.7542H35.0738V15.3331C35.0738 14.8543 35.216 14.3862 35.4823 13.9881C35.7486 13.59 36.1271 13.2796 36.57 13.0964C37.0128 12.9132 37.5002 12.8652 37.9703 12.9586C38.4404 13.0521 38.8723 13.2826 39.2113 13.6212C39.5502 13.9598 39.781 14.3912 39.8746 14.8608C39.9681 15.3305 39.9201 15.8172 39.7366 16.2596C39.5532 16.702 39.2425 17.0801 38.844 17.3461C38.4454 17.6122 37.9768 17.7542 37.4975 17.7542ZM20.5318 3.22803H31.8423V10.2302C30.7881 9.73008 29.6048 9.56808 28.4548 9.76644C27.3048 9.9648 26.2444 10.5138 25.4192 11.3381C24.594 12.1624 24.0444 13.2216 23.8458 14.3704C23.6473 15.5192 23.8094 16.7011 24.3101 17.7542H17.3003V6.45606C17.3013 5.60024 17.6421 4.77977 18.2479 4.17462C18.8537 3.56947 19.6751 3.22904 20.5318 3.22803ZM19.5018 54.961L25.7148 48.7547C26.6539 47.8086 27.1796 46.5293 27.1767 45.1969C27.1738 43.8645 26.6427 42.5875 25.6995 41.6454C24.7564 40.7032 23.478 40.1727 22.1441 40.1698C20.8103 40.1669 19.5296 40.692 18.5824 41.6301L17.3003 42.91V20.9822H28.8519L24.3693 24.5639L26.389 27.0846L31.8423 22.7267V61.3326H21.5932C21.6 59.0393 20.8666 56.805 19.5018 54.961ZM77.4196 41.6301C76.4724 40.692 75.1917 40.1669 73.8579 40.1698C72.524 40.1727 71.2457 40.7032 70.3025 41.6454C69.3593 42.5875 68.8282 43.8645 68.8253 45.1969C68.8224 46.5293 69.3481 47.8086 70.2872 48.7547L76.5002 54.961C75.1347 56.8048 74.4006 59.0391 74.4068 61.3326H35.0738V22.7263L40.527 27.0842L42.5468 24.5635L38.0642 20.9822H78.6997V42.91L77.4196 41.6301Z" fill="black"/>
<path d="M46.3839 32.2803H49.6155V35.5083H46.3839V32.2803Z" fill="black"/>
<path d="M52.847 32.2803H72.2363V35.5083H52.847V32.2803Z" fill="black"/>
<path d="M41.5366 38.7364H65.7732V41.9644H41.5366V38.7364Z" fill="black"/>
<path d="M41.5366 45.1924H65.7732V48.4204H41.5366V45.1924Z" fill="black"/>
<path d="M41.5366 51.6485H67.389V54.8765H41.5366V51.6485Z" fill="black"/>
</svg>
